<svg id="Layer_1" data-name="Layer 1" xmlns="http://www.w3.org/2000/svg" viewBox="0 0 203.22 85.46"><defs><style>.cls-1{fill:#153d8a;}.cls-2{fill:#e84e0f;}</style></defs><title>Artboard 1</title><path class="cls-1" d="M80.23,43.19H76V11.84h5.08q1.4,0,2.31.09a8.21,8.21,0,0,1,2.16.56,5,5,0,0,1,2,1.31,7.24,7.24,0,0,1,1.29,2.47,12.52,12.52,0,0,1,.55,4c0,3.24-.72,5.59-2.14,7.05s-3.76,2.13-7,2Zm.59-27.81h-.59V25.77c1.75.11,3-.26,3.64-1.12a6.56,6.56,0,0,0,1-4.07c0-3.47-1.35-5.2-4.07-5.2"/><path class="cls-1" d="M94.67,43.19V11.84h5.08c.82,0,1.5,0,2,.07a8.44,8.44,0,0,1,2,.49,4.78,4.78,0,0,1,2,1.23A7.1,7.1,0,0,1,107.1,16a11.51,11.51,0,0,1,.58,3.85,15.93,15.93,0,0,1-.34,3.28,8.23,8.23,0,0,1-1.38,3,4.06,4.06,0,0,1-2.69,1.74l5.89,15.26h-4.41L99,27.85h-.08V43.19Zm4.24-17.46q4.28.3,4.28-4.95a9.38,9.38,0,0,0-.7-4.05q-.7-1.39-2.91-1.35h-.67Z"/><path class="cls-1" d="M119,12.05a7.81,7.81,0,0,1,6.1,0,6.91,6.91,0,0,1,2.2,1.54A7.83,7.83,0,0,1,128.74,16a18.14,18.14,0,0,1,.91,2.77,21.72,21.72,0,0,1,.47,3.12c.11,1.24.17,2.21.19,2.91s0,1.59,0,2.7,0,2,0,2.7-.08,1.66-.19,2.91a21.72,21.72,0,0,1-.47,3.12,18.88,18.88,0,0,1-.91,2.77,7.83,7.83,0,0,1-1.46,2.43,6.91,6.91,0,0,1-2.2,1.54,7.81,7.81,0,0,1-6.1,0,6.91,6.91,0,0,1-2.2-1.54A7.83,7.83,0,0,1,115.32,39a18.88,18.88,0,0,1-.91-2.77,21.72,21.72,0,0,1-.47-3.12c-.11-1.25-.18-2.22-.19-2.91s0-1.59,0-2.7,0-2,0-2.7.08-1.67.19-2.91a21.72,21.72,0,0,1,.47-3.12,18.14,18.14,0,0,1,.91-2.77,7.83,7.83,0,0,1,1.46-2.43,6.91,6.91,0,0,1,2.2-1.54m6.1,6.42c-.51-2.09-1.52-3.13-3-3.13s-2.54,1-3,3.13a40.74,40.74,0,0,0-.76,9.05,40.58,40.58,0,0,0,.76,9c.51,2.1,1.53,3.14,3,3.14s2.54-1,3-3.14a40.58,40.58,0,0,0,.76-9,40.74,40.74,0,0,0-.76-9"/><polygon class="cls-1" points="138 11.84 141.64 11.84 146.17 34.46 146.26 34.46 146.38 33.17 147.65 25.65 150.41 11.84 154.13 11.84 157.1 43.19 152.95 43.19 152.19 31.51 151.93 25.69 151.85 21.57 151.76 21.57 151.04 26.06 147.74 43.19 144.81 43.19 140.71 21.57 140.62 21.57 139.39 43.19 135.37 43.19 138 11.84"/><rect class="cls-1" x="162.94" y="11.84" width="4.24" height="31.35"/><path class="cls-1" d="M184.46,12.47l-.05,4.2a6.2,6.2,0,0,0-3.6-1.33,3.44,3.44,0,0,0-2.73,1.18,4.19,4.19,0,0,0-1,2.85,5.36,5.36,0,0,0,1.19,3.41l3.22,3.45a20.16,20.16,0,0,1,3.49,4.35,10,10,0,0,1,1,4.84,8.65,8.65,0,0,1-2,5.82,6.85,6.85,0,0,1-5.47,2.37,7.28,7.28,0,0,1-4.65-1.5v-4.2A7.3,7.3,0,0,0,178,39.54a3.26,3.26,0,0,0,2.79-1.25,5.07,5.07,0,0,0,.93-3.12,6,6,0,0,0-.91-3.2,11.76,11.76,0,0,0-2.24-2.7c-.89-.81-1.77-1.64-2.65-2.5a11.45,11.45,0,0,1-2.22-3.16,9.34,9.34,0,0,1-.91-4.16,8.78,8.78,0,0,1,1.86-5.76,6.47,6.47,0,0,1,5.3-2.26,8.75,8.75,0,0,1,4.49,1"/><path class="cls-1" d="M201.69,12.47l0,4.2a6.2,6.2,0,0,0-3.6-1.33,3.44,3.44,0,0,0-2.73,1.18,4.19,4.19,0,0,0-1,2.85,5.36,5.36,0,0,0,1.19,3.41l3.21,3.45a20.26,20.26,0,0,1,3.5,4.35,10,10,0,0,1,1,4.84,8.61,8.61,0,0,1-2,5.82,6.81,6.81,0,0,1-5.46,2.37,7.29,7.29,0,0,1-4.66-1.5v-4.2a7.35,7.35,0,0,0,4.19,1.63,3.27,3.27,0,0,0,2.8-1.25,5.07,5.07,0,0,0,.93-3.12,6,6,0,0,0-.91-3.2,12,12,0,0,0-2.24-2.7c-.89-.81-1.78-1.64-2.65-2.5A11,11,0,0,1,191,23.61a9.34,9.34,0,0,1-.91-4.16,8.78,8.78,0,0,1,1.86-5.76,6.46,6.46,0,0,1,5.29-2.26,8.73,8.73,0,0,1,4.49,1"/><polygon class="cls-2" points="75.82 58.89 77.04 58.89 80.81 64.42 80.83 64.42 80.83 58.89 81.76 58.89 81.76 65.62 80.58 65.62 76.77 60.09 76.75 60.09 76.75 65.62 75.82 65.62 75.82 58.89"/><path class="cls-2" d="M87.56,65.62h-.87v-.69h0a1.27,1.27,0,0,1-.57.58,2.11,2.11,0,0,1-1.58.12,1.42,1.42,0,0,1-.53-.31,1.38,1.38,0,0,1-.36-.53A2.06,2.06,0,0,1,83.5,64v-2.9h.87v2.67a1.69,1.69,0,0,0,.08.53,1,1,0,0,0,.24.36.7.7,0,0,0,.33.2,1.07,1.07,0,0,0,.39.07,1.35,1.35,0,0,0,.5-.09,1,1,0,0,0,.41-.27,1.21,1.21,0,0,0,.27-.47,2,2,0,0,0,.1-.68V61.11h.87Z"/><path class="cls-2" d="M91.53,61.86H90.28v2c0,.13,0,.25,0,.37a1.14,1.14,0,0,0,.07.34.59.59,0,0,0,.2.24.64.64,0,0,0,.38.09l.32,0a1,1,0,0,0,.3-.11v.78a1,1,0,0,1-.4.12l-.38,0A1.8,1.8,0,0,1,90,65.6a1,1,0,0,1-.41-.36,1.18,1.18,0,0,1-.16-.49c0-.18,0-.36,0-.55V61.86h-1v-.75h1V59.85h.87v1.26h1.25Z"/><path class="cls-2" d="M92.85,61.11h.87v.7h0a1,1,0,0,1,.23-.33,1.54,1.54,0,0,1,.32-.25,2.09,2.09,0,0,1,.4-.17,1.52,1.52,0,0,1,.42-.06,1.23,1.23,0,0,1,.39.06l0,.92-.21,0-.22,0a1.26,1.26,0,0,0-1,.36,1.48,1.48,0,0,0-.34,1.09v2.26h-.87Z"/><path class="cls-2" d="M96.49,59.5a.6.6,0,0,1,.18-.44.61.61,0,0,1,.45-.19.62.62,0,0,1,.46.19.63.63,0,0,1,0,.88.64.64,0,0,1-.91,0,.6.6,0,0,1-.18-.44m.2,1.61h.87v4.51h-.87Z"/><path class="cls-2" d="M101.6,61.86h-1.25v2c0,.13,0,.25,0,.37a.89.89,0,0,0,.07.34.57.57,0,0,0,.19.24.7.7,0,0,0,.39.09l.32,0a1,1,0,0,0,.3-.11v.78a1.1,1.1,0,0,1-.41.12l-.38,0a1.86,1.86,0,0,1-.78-.13.94.94,0,0,1-.4-.36,1.18,1.18,0,0,1-.16-.49,5,5,0,0,1,0-.55V61.86h-1v-.75h1V59.85h.87v1.26h1.25Z"/><path class="cls-2" d="M102.78,59.5a.58.58,0,0,1,.19-.44.58.58,0,0,1,.45-.19.61.61,0,0,1,.45.19.63.63,0,0,1,0,.88.65.65,0,0,1-.45.19.62.62,0,0,1-.45-.19.58.58,0,0,1-.19-.44m.2,1.61h.87v4.51H103Z"/><path class="cls-2" d="M105.21,63.37a2.17,2.17,0,0,1,.19-.92,2.31,2.31,0,0,1,.51-.76,2.43,2.43,0,0,1,.78-.5,2.35,2.35,0,0,1,1-.19,2.38,2.38,0,0,1,1,.19,2.34,2.34,0,0,1,1.29,1.26,2.32,2.32,0,0,1-.52,2.59,2.35,2.35,0,0,1-.77.51,2.56,2.56,0,0,1-1,.18,2.52,2.52,0,0,1-1-.18,2.29,2.29,0,0,1-.78-.51,2.36,2.36,0,0,1-.7-1.67m.93,0a1.81,1.81,0,0,0,.1.63,1.35,1.35,0,0,0,.3.49,1.37,1.37,0,0,0,.48.33,1.54,1.54,0,0,0,.63.12,1.61,1.61,0,0,0,.63-.12,1.43,1.43,0,0,0,.47-.33,1.35,1.35,0,0,0,.3-.49,1.86,1.86,0,0,0,0-1.26,1.39,1.39,0,0,0-.3-.5,1.56,1.56,0,0,0-.47-.32,1.61,1.61,0,0,0-.63-.12,1.54,1.54,0,0,0-.63.12,1.49,1.49,0,0,0-.48.32,1.39,1.39,0,0,0-.3.5,1.81,1.81,0,0,0-.1.63"/><path class="cls-2" d="M111.37,61.11h.87v.7h0a1.35,1.35,0,0,1,.57-.59,2.08,2.08,0,0,1,1-.22,1.93,1.93,0,0,1,.63.1,1.48,1.48,0,0,1,.53.31,1.5,1.5,0,0,1,.36.54,2,2,0,0,1,.14.77v2.9h-.87V63a1.45,1.45,0,0,0-.09-.54.93.93,0,0,0-.23-.36.9.9,0,0,0-.34-.2,1.23,1.23,0,0,0-.39-.06,1.35,1.35,0,0,0-.5.09.92.92,0,0,0-.41.27,1.42,1.42,0,0,0-.27.47,2.2,2.2,0,0,0-.1.67v2.32h-.87Z"/><path class="cls-2" d="M120.17,61.86h-1v-.75h1v-1a2.13,2.13,0,0,1,.36-1.35,1.47,1.47,0,0,1,1.21-.44h.31l.34.06-.1.76a1.09,1.09,0,0,0-.24-.07l-.25,0a1,1,0,0,0-.39.07.58.58,0,0,0-.23.21.75.75,0,0,0-.1.32,2.58,2.58,0,0,0,0,.42v1h1v.75h-1v3.76h-.87Z"/><path class="cls-2" d="M123,63.37a2.17,2.17,0,0,1,.19-.92,2.34,2.34,0,0,1,.52-.76,2.52,2.52,0,0,1,2.69-.5,2.34,2.34,0,0,1,1.29,1.26A2.32,2.32,0,0,1,127.2,65a2.35,2.35,0,0,1-.77.51,2.65,2.65,0,0,1-1.92,0,2.25,2.25,0,0,1-.77-.51,2.2,2.2,0,0,1-.52-.75,2.17,2.17,0,0,1-.19-.92m.93,0a1.81,1.81,0,0,0,.1.63,1.37,1.37,0,0,0,.31.49,1.25,1.25,0,0,0,.47.33,1.71,1.71,0,0,0,1.26,0,1.33,1.33,0,0,0,.47-.33,1.35,1.35,0,0,0,.3-.49,1.86,1.86,0,0,0,0-1.26,1.39,1.39,0,0,0-.3-.5,1.45,1.45,0,0,0-.47-.32,1.71,1.71,0,0,0-1.26,0,1.35,1.35,0,0,0-.47.32,1.41,1.41,0,0,0-.31.5,1.81,1.81,0,0,0-.1.63"/><path class="cls-2" d="M129.19,61.11h.88v.7h0a1,1,0,0,1,.23-.33,1.31,1.31,0,0,1,.32-.25,2.3,2.3,0,0,1,.39-.17,1.65,1.65,0,0,1,.43-.06,1.23,1.23,0,0,1,.39.06l0,.92-.21,0-.22,0a1.26,1.26,0,0,0-1,.36,1.48,1.48,0,0,0-.34,1.09v2.26h-.88Z"/><path class="cls-2" d="M135.85,58.44h.88v3.37h0a1.29,1.29,0,0,1,.57-.59,2,2,0,0,1,.94-.22,1.89,1.89,0,0,1,.63.1,1.48,1.48,0,0,1,.53.31,1.52,1.52,0,0,1,.37.54,2,2,0,0,1,.13.77v2.9h-.87V63a1.45,1.45,0,0,0-.09-.54.83.83,0,0,0-.23-.36.94.94,0,0,0-.33-.2,1.34,1.34,0,0,0-.4-.06,1.39,1.39,0,0,0-.5.09,1,1,0,0,0-.41.27,1.42,1.42,0,0,0-.27.47,2.22,2.22,0,0,0-.09.67v2.32h-.88Z"/><path class="cls-2" d="M142.09,63.68a1.08,1.08,0,0,0,.13.54,1.36,1.36,0,0,0,.34.41,1.72,1.72,0,0,0,.5.27,1.85,1.85,0,0,0,.58.09,1.33,1.33,0,0,0,.7-.18,2.56,2.56,0,0,0,.56-.49l.66.49a2.45,2.45,0,0,1-2,.92,2.55,2.55,0,0,1-1-.18,2.15,2.15,0,0,1-.75-.5,2.05,2.05,0,0,1-.46-.75,2.37,2.37,0,0,1-.17-.93,2.42,2.42,0,0,1,.18-.94,2.27,2.27,0,0,1,.49-.75,2.29,2.29,0,0,1,.75-.5,2.47,2.47,0,0,1,.95-.18,2.28,2.28,0,0,1,1,.21,2,2,0,0,1,.69.55,1.92,1.92,0,0,1,.4.76,3.13,3.13,0,0,1,.12.86v.3Zm2.75-.68a2.17,2.17,0,0,0-.09-.53,1.33,1.33,0,0,0-.25-.41,1,1,0,0,0-.41-.27,1.5,1.5,0,0,0-.58-.1,1.36,1.36,0,0,0-.58.11,1.5,1.5,0,0,0-.45.31,1.36,1.36,0,0,0-.29.43,1.09,1.09,0,0,0-.1.46Z"/><path class="cls-2" d="M147,61.67a2.28,2.28,0,0,1,.85-.5,3,3,0,0,1,1-.17,2.75,2.75,0,0,1,.86.12,1.92,1.92,0,0,1,.6.34,1.32,1.32,0,0,1,.34.48,1.36,1.36,0,0,1,.11.56v2.3c0,.16,0,.31,0,.44l0,.38H150c0-.23,0-.46,0-.68h0a1.6,1.6,0,0,1-.69.61,2.19,2.19,0,0,1-.92.18,2.09,2.09,0,0,1-.61-.08,1.54,1.54,0,0,1-.51-.26,1.17,1.17,0,0,1-.34-.42,1.35,1.35,0,0,1-.13-.59,1.3,1.3,0,0,1,.2-.73,1.53,1.53,0,0,1,.55-.48,2.51,2.51,0,0,1,.8-.26,5.05,5.05,0,0,1,1-.08H150v-.19a.87.87,0,0,0-.07-.35,1,1,0,0,0-.2-.31,1,1,0,0,0-.34-.21,1.21,1.21,0,0,0-.48-.08,2,2,0,0,0-.45,0,3.4,3.4,0,0,0-.34.12,1.31,1.31,0,0,0-.28.17l-.24.18Zm2.45,1.78a4.64,4.64,0,0,0-.63,0,2.57,2.57,0,0,0-.59.12,1.37,1.37,0,0,0-.44.27.69.69,0,0,0,.1,1,1.37,1.37,0,0,0,.72.17,1.41,1.41,0,0,0,.61-.12,1.09,1.09,0,0,0,.41-.31,1.13,1.13,0,0,0,.22-.42,1.51,1.51,0,0,0,.07-.46v-.29Z"/><rect class="cls-2" x="152.29" y="58.44" width="0.87" height="7.19"/><path class="cls-2" d="M157.2,61.86H156v2c0,.13,0,.25,0,.37a1.14,1.14,0,0,0,.07.34.52.52,0,0,0,.2.24.64.64,0,0,0,.38.09l.32,0a1,1,0,0,0,.3-.11v.78a1.11,1.11,0,0,1-.4.12l-.38,0a1.88,1.88,0,0,1-.79-.13,1,1,0,0,1-.4-.36,1.18,1.18,0,0,1-.16-.49c0-.18,0-.36,0-.55V61.86h-1v-.75h1V59.85H156v1.26h1.25Z"/><path class="cls-2" d="M158.52,58.44h.87v3.37h0a1.29,1.29,0,0,1,.57-.59,2,2,0,0,1,.94-.22,1.89,1.89,0,0,1,.63.1,1.48,1.48,0,0,1,.53.31,1.41,1.41,0,0,1,.37.54,2,2,0,0,1,.13.77v2.9h-.87V63a1.45,1.45,0,0,0-.09-.54.83.83,0,0,0-.23-.36.86.86,0,0,0-.33-.2,1.32,1.32,0,0,0-.39-.06,1.44,1.44,0,0,0-.51.09.89.89,0,0,0-.4.27,1.28,1.28,0,0,0-.28.47,2.22,2.22,0,0,0-.09.67v2.32h-.87Z"/><path class="cls-2" d="M163.55,61.11h1l1.35,3.52h0l1.3-3.52h.93L166,66.59c-.08.2-.16.37-.24.54a1.61,1.61,0,0,1-.3.41,1.51,1.51,0,0,1-.42.27,1.72,1.72,0,0,1-.6.09l-.39,0a1.64,1.64,0,0,1-.38-.1l.1-.78a1.41,1.41,0,0,0,.52.1.84.84,0,0,0,.34,0,.65.65,0,0,0,.24-.15.76.76,0,0,0,.17-.23,3.11,3.11,0,0,0,.14-.31l.28-.71Z"/><path class="cls-2" d="M172,61.67a2.36,2.36,0,0,1,.85-.5,3,3,0,0,1,1-.17,2.81,2.81,0,0,1,.87.12,1.76,1.76,0,0,1,.59.34,1.35,1.35,0,0,1,.35.48,1.55,1.55,0,0,1,.11.56v2.3c0,.16,0,.31,0,.44s0,.26,0,.38H175c0-.23,0-.46,0-.68h0a1.63,1.63,0,0,1-.68.61,2.27,2.27,0,0,1-.93.18,2,2,0,0,1-.6-.08,1.37,1.37,0,0,1-.51-.26,1.19,1.19,0,0,1-.35-.42,1.35,1.35,0,0,1-.12-.59,1.23,1.23,0,0,1,.2-.73,1.58,1.58,0,0,1,.54-.48,2.69,2.69,0,0,1,.8-.26,5.23,5.23,0,0,1,1-.08H175v-.19a1.07,1.07,0,0,0-.06-.35,1.21,1.21,0,0,0-.21-.31.89.89,0,0,0-.34-.21,1.15,1.15,0,0,0-.48-.08,1.89,1.89,0,0,0-.44,0,2.23,2.23,0,0,0-.34.12,1.38,1.38,0,0,0-.29.17l-.24.18Zm2.46,1.78a4.44,4.44,0,0,0-.63,0,2.66,2.66,0,0,0-.6.12,1.32,1.32,0,0,0-.43.27.57.57,0,0,0-.17.44.61.61,0,0,0,.27.56,1.32,1.32,0,0,0,.72.17,1.44,1.44,0,0,0,.61-.12,1.13,1.13,0,0,0,.4-.31,1.15,1.15,0,0,0,.23-.42,1.88,1.88,0,0,0,.06-.46v-.29Z"/><path class="cls-2" d="M181.83,65.58a2.39,2.39,0,0,1-.18.94,2.19,2.19,0,0,1-.51.73,2.27,2.27,0,0,1-.79.48,3.13,3.13,0,0,1-1,.17,3.89,3.89,0,0,1-1.21-.18,2.93,2.93,0,0,1-1-.63l.59-.72a2.55,2.55,0,0,0,.74.55,2.13,2.13,0,0,0,.9.18,1.88,1.88,0,0,0,.8-.14,1.32,1.32,0,0,0,.51-.35,1.35,1.35,0,0,0,.27-.5,2.22,2.22,0,0,0,.07-.57v-.66h0a1.55,1.55,0,0,1-.69.6,2.15,2.15,0,0,1-.9.2,2.42,2.42,0,0,1-.94-.18,2.48,2.48,0,0,1-.74-.48,2.36,2.36,0,0,1-.48-.74,2.27,2.27,0,0,1-.18-.91,2.6,2.6,0,0,1,.17-.93,2.22,2.22,0,0,1,.47-.75,2.09,2.09,0,0,1,.73-.51,2.5,2.5,0,0,1,1-.18,2.18,2.18,0,0,1,.9.2,1.63,1.63,0,0,1,.7.56h0v-.65h.88Zm-2.39-3.78a1.52,1.52,0,0,0-.62.12,1.49,1.49,0,0,0-.48.32,1.39,1.39,0,0,0-.3.5,1.81,1.81,0,0,0-.11.63,1.53,1.53,0,0,0,.41,1.1,1.69,1.69,0,0,0,2.21,0,1.52,1.52,0,0,0,.4-1.1,1.81,1.81,0,0,0-.1-.63,1.39,1.39,0,0,0-.3-.5,1.49,1.49,0,0,0-.48-.32,1.54,1.54,0,0,0-.63-.12"/><path class="cls-2" d="M184,63.68a1.2,1.2,0,0,0,.13.54,1.39,1.39,0,0,0,.35.41,1.67,1.67,0,0,0,.49.27,1.9,1.9,0,0,0,.58.09,1.36,1.36,0,0,0,.71-.18,2.52,2.52,0,0,0,.55-.49l.66.49a2.42,2.42,0,0,1-2,.92,2.64,2.64,0,0,1-1-.18,2,2,0,0,1-.74-.5,2.22,2.22,0,0,1-.47-.75,2.56,2.56,0,0,1-.16-.93,2.42,2.42,0,0,1,.17-.94,2.3,2.3,0,0,1,1.25-1.25,2.44,2.44,0,0,1,.95-.18,2.31,2.31,0,0,1,1,.21,2,2,0,0,1,.69.55,2,2,0,0,1,.39.76,3.13,3.13,0,0,1,.12.86v.3Zm2.75-.68a1.51,1.51,0,0,0-.09-.53,1.16,1.16,0,0,0-.25-.41,1,1,0,0,0-.41-.27,1.42,1.42,0,0,0-.57-.1,1.44,1.44,0,0,0-.59.11,1.5,1.5,0,0,0-.45.31,1.33,1.33,0,0,0-.28.43A1.11,1.11,0,0,0,184,63Z"/><path class="cls-2" d="M188.78,59.5a.6.6,0,0,1,.18-.44.61.61,0,0,1,.45-.19.62.62,0,0,1,.46.19.63.63,0,0,1,0,.88.64.64,0,0,1-.91,0,.6.6,0,0,1-.18-.44m.2,1.61h.87v4.51H189Z"/><path class="cls-2" d="M191.43,61.11h.87v.7h0a1.29,1.29,0,0,1,.57-.59,2,2,0,0,1,.94-.22,1.89,1.89,0,0,1,.63.1,1.53,1.53,0,0,1,.54.31,1.5,1.5,0,0,1,.36.54,2,2,0,0,1,.14.77v2.9h-.88V63a1.71,1.71,0,0,0-.08-.54,1,1,0,0,0-.24-.36.79.79,0,0,0-.33-.2,1.32,1.32,0,0,0-.39-.06,1.35,1.35,0,0,0-.5.09.92.92,0,0,0-.41.27,1.14,1.14,0,0,0-.27.47,1.93,1.93,0,0,0-.1.67v2.32h-.87Z"/><path class="cls-2" d="M201.6,65.58a2.39,2.39,0,0,1-.18.94,2.19,2.19,0,0,1-.51.73,2.1,2.1,0,0,1-.79.48,3,3,0,0,1-1,.17,3.84,3.84,0,0,1-1.21-.18,2.93,2.93,0,0,1-1-.63l.59-.72a2.55,2.55,0,0,0,.74.55,2.13,2.13,0,0,0,.9.18,1.88,1.88,0,0,0,.8-.14,1.49,1.49,0,0,0,.51-.35,1.33,1.33,0,0,0,.26-.5,1.87,1.87,0,0,0,.08-.57v-.66h0a1.47,1.47,0,0,1-.68.6,2.19,2.19,0,0,1-.91.2,2.41,2.41,0,0,1-.93-.18,2.36,2.36,0,0,1-.74-.48,2.06,2.06,0,0,1-.48-.74,2.27,2.27,0,0,1-.18-.91,2.6,2.6,0,0,1,.17-.93,2.23,2.23,0,0,1,1.2-1.26,2.49,2.49,0,0,1,1-.18,2.23,2.23,0,0,1,.91.2,1.66,1.66,0,0,1,.69.56h0v-.65h.87Zm-2.38-3.78a1.61,1.61,0,0,0-.63.12,1.56,1.56,0,0,0-.47.32,1.39,1.39,0,0,0-.3.5,1.81,1.81,0,0,0-.11.63,1.53,1.53,0,0,0,.41,1.1,1.69,1.69,0,0,0,2.21,0,1.52,1.52,0,0,0,.4-1.1,1.61,1.61,0,0,0-.11-.63,1.53,1.53,0,0,0-.29-.5,1.49,1.49,0,0,0-.48-.32,1.61,1.61,0,0,0-.63-.12"/><path class="cls-1" d="M31.48,25.12A12.68,12.68,0,0,0,44.27,12.56a12.8,12.8,0,0,0-25.59,0,12.68,12.68,0,0,0,12.8,12.56m0-20.88A8.45,8.45,0,0,1,40,12.56a8.56,8.56,0,0,1-17.11,0,8.45,8.45,0,0,1,8.56-8.32"/><path class="cls-2" d="M31.48,62.73A10.18,10.18,0,1,1,21.07,72.9,10.3,10.3,0,0,1,31.48,62.73m0-2.39A12.56,12.56,0,1,0,44.27,72.9,12.69,12.69,0,0,0,31.48,60.34"/><path class="cls-1" d="M14.26,39.7a32.41,32.41,0,0,1,6.42-3.22A30.27,30.27,0,0,0,.86,12.16S.91,17,.94,17A30,30,0,0,0,14.26,39.7m1.63-4.32a25.63,25.63,0,0,1-10-15.5,25.65,25.65,0,0,1,10,15.5"/><path class="cls-1" d="M46.62,41a29.84,29.84,0,0,0-5.2-2.46A26.4,26.4,0,0,1,34,40.34a28.88,28.88,0,0,0,1.23,4.35A31,31,0,0,0,46.62,41"/><path class="cls-1" d="M31.79,40.46h-.31a26.38,26.38,0,0,1-9.93-1.93A28.81,28.81,0,0,0,16.35,41a30.87,30.87,0,0,0,15.13,3.93c.51,0,1,0,1.53,0a30.08,30.08,0,0,1-1.22-4.42"/><path class="cls-1" d="M48.69,39.7A30,30,0,0,0,62,17s.08-4.85.08-4.85A30.26,30.26,0,0,0,42.27,36.48a31.87,31.87,0,0,1,6.42,3.22m8.36-19.82a25.6,25.6,0,0,1-10,15.51,25.6,25.6,0,0,1,10-15.51"/><path class="cls-2" d="M63,65.7c0-16.94-13.83-30.76-31-31.16H31.2C13.94,34.82,0,48.69,0,65.7l.21,0v0a31.78,31.78,0,0,0,30-20.82c-.77,0-1.54-.09-2.3-.18A29.38,29.38,0,0,1,2.36,63.39,29.12,29.12,0,0,1,29.61,36.83a29,29,0,0,1-.49,3.52c.62.06,1.25.09,1.88.1h0s.35,0,.79,0A31.65,31.65,0,0,0,63,65.7M33.54,36.84c14.46,1.1,26,12.35,27.06,26.55A28.88,28.88,0,0,1,33.54,36.84"/></svg>