<?xml version="1.0" encoding="utf-8"?>
<!-- Generator: Adobe Illustrator 22.0.1, SVG Export Plug-In . SVG Version: 6.00 Build 0)  -->
<svg version="1.1" id="Layer_1" xmlns="http://www.w3.org/2000/svg" xmlns:xlink="http://www.w3.org/1999/xlink" x="0px" y="0px"
	 viewBox="0 0 183.7 44.3" style="enable-background:new 0 0 183.7 44.3;" xml:space="preserve">
<style type="text/css">
	.st0{fill:#0089CF;}
	.st1{fill:#FFFFFF;}
</style>
<polygon class="st0" points="179.7,30.4 179.7,24.3 177.1,24.3 177.1,23.3 183.7,23.3 183.7,24.3 181.2,24.3 181.2,30.4 "/>
<polygon points="12.3,43.5 0,10.1 7.4,10.1 17,35.9 26.3,10.1 31.2,10.1 19.3,43.5 "/>
<path d="M35.3,10.1h6.9v20.5c0,3.7,0.6,6.1,1.9,7.4c1.3,1.2,2.9,1.8,4.9,1.8c2,0,3.5-0.6,4.7-1.8c1.2-1.2,1.7-3.5,1.7-6.9v-21h6
	v20.5c0,3.9-0.5,6.6-1.5,8.3s-2.4,3-4.2,4c-1.8,1-4.2,1.4-7,1.4c-2.8,0-5.1-0.4-7.1-1.3c-2-0.9-3.6-2.2-4.7-4
	c-1.2-1.8-1.7-4.6-1.7-8.4L35.3,10.1L35.3,10.1z"/>
<path class="st1" d="M71,35.3v0.9l0.3-0.2c-0.1-0.2-0.1-0.5-0.2-0.7H71z"/>
<path class="st0" d="M75.4,25.5c0-0.1,0.1-0.3,0.3-0.3c0.1,0,0.3,0.1,0.3,0.3c0,0.1-0.1,0.3-0.3,0.3C75.5,25.8,75.4,25.7,75.4,25.5"
	/>
<path class="st0" d="M91.9,33.6c-0.4-1.1-1.5-1.8-2.9-1.7c-0.8-1.5-2.1-0.8-2.5-0.4c0.4,0.4,0.7,0.5,1.2,0.6v0.3
	c-0.9,0-1.2-0.4-1.8-1.1c-0.3,2.2,2.3,3,3.1,1.2c1.2,0,2,0.5,2.2,1.3c0.3,0.8,0,1.6-0.4,2c-0.7,0.9-1.9,0.9-3,0.3
	c-0.7-0.3-1.4-1-2-1.7c-0.9-1-1.4-1.5-2.1-1.8c-0.4-0.2-0.8-0.3-1.1-0.3c-0.2,0-0.4-0.1-0.7-0.1c-0.2,0-0.4,0-0.6,0.1
	c-1.6,0.2-3.2,0.9-5.1,1.1h-1c-0.6,0.6-1.2,1.1-1.7,1.5l-1.2,1l0,0c-0.5,0.5-0.8,0.7-0.8,0.7c0.1,1.1,0.2,1.7,0.2,2.7
	c0,0.9,0,1.3,0,1.6c0,0.4-0.1,0.7-0.2,1s-0.3,0.5-0.7,0.5c-0.3,0.1-1.1-0.5-1.4-0.1c-0.2,0.3,0,1,0.3,1.2h2.2
	c0.3-0.5,0.4-0.9,0.5-1.2c0.2-0.3,0.3-0.7,0.5-0.9c0.2-0.3,0.3-0.6,0.4-0.9c0-0.3,0.1-0.5,0.2-0.7c0.2-0.4,0.4-0.8,0.5-1
	c0-0.1,0.1-0.1,0.1-0.2c0.1,0.1,0.2,0.3,0.2,0.4c0.5,0.8,1,1.4,1.7,1.7c0.3,0.1,0.5,0.3,0.6,0.4c0.1,0.1,0.1,0.4,0.1,0.7
	s-0.1,0.6-0.4,0.7c-0.5,0.2-1.2-0.5-1.5-0.1c-0.3,0.3,0,0.8,0.3,1.2h2c0.5-0.8,0.7-1.8,0.7-2.7s0-1.1-0.6-1.4
	c-0.2-0.1-0.4-0.6-0.5-1c0-0.1,0-0.1,0-0.3c0.9-0.3,2-0.9,3.1-1.7c0,0.2,0,0.3,0,0.5c0.2,1.3,0.3,2.4,1.3,3.3
	c0.3,0.3,0.5,0.5,0.5,0.7c0,0.1-0.1,0.5-0.3,0.7c-0.2,0.5-0.7,0.9-1.1,0.9c-0.5,0.1-1-0.6-1.4-0.2c-0.3,0.3,0.1,1,0.3,1.2h2
	c0.7-1.2,1.6-2.2,1.9-2.9c0.2-0.5,0.2-0.7-0.2-0.8c-0.7-0.4-0.6-1.2-0.4-2.1c0-0.2,0.1-0.3,0.2-0.5c0.5,1.4,1.2,2.7,2.7,3.1
	c0.3,0,0.6,0.2,0.7,0.3c0,0.1,0,0.4,0,0.6c-0.1,0.4-0.3,1-0.7,1.2c-0.4,0.3-1.3-0.7-1.6-0.1c-0.2,0.4,0.2,1,0.3,1.2h2
	c0.5-1.2,1-2.3,1.2-3.1c0.1-0.9,0.1-1.3-0.6-1.4c-0.4,0-0.7-0.2-0.8-0.7c-0.3-0.9-0.2-2.5-0.9-3.5c0.8,0.9,1.6,1.6,2.4,2
	c1.7,0.9,3.5,0.6,4.3-0.6C92.1,35.3,92.1,34.3,91.9,33.6"/>
<path class="st0" d="M108.8,10.3c-1.5-0.2-4.9,0.2-7.9,0.8c1.8-0.9,2.4-1.1,3-1.5c0.2-0.1,0.3-0.4,0.3-0.8c0-0.4-0.4-0.5-0.9-0.4
	c-0.5,0-1.5,0.4-2.8,0.8c-2.5,1-6.1,2.7-10.4,5.6c-3.8,2.6-6.3,4.8-9,7.5c-0.7,0.7-1.5,1.6-2.4,2.6c-0.1-0.2-0.2-0.3-0.5-0.2
	c1-2.2,1.1-2.3,1.6-3.5c0.2-0.6,0.1-1-0.1-1.3c-0.3-0.5-0.7-0.2-1,0c-0.4,0.5-0.5,0.6-1.4,1.7c1.1-3.7,1.7-4,2.7-6.1
	c0.1-0.3,0.1-0.7,0-1s-0.3-0.4-0.5-0.3c-0.4,0.2-0.5,0.4-1.3,1.3c1.1-2.1,2.6-4.6,2.8-5c0.2-0.4,0.4-0.5,0-1.2
	c-0.4-0.6-0.7-0.1-1,0.1c-0.2,0.1-0.7,0.6-1.4,1.5c1.6-3,3.1-4.4,3.4-4.9c0.4-0.6,0.4-0.7,0.1-1.4c-0.3-0.6-0.8-0.3-1,0
	c-1.1,1.1-1.1,0.8-3,3.1c1-2.6,2.7-4.6,3.3-5.6c0.3-0.4,0.3-0.6,0-1.5C81.3,0.2,80.9,0,80.5,0c-0.5,0.2-1,0.5-2,1.4
	c-2.1,1.9-4.9,4.6-7.2,9.5c-2.2,4.6-2.7,8.9-2.7,11.9c0,4.6,1.2,8.6,2.3,11.2c0-0.1,0-0.2,0-0.3c-0.1-1.2,0.1-2.7,0.4-3.4
	c0.5-1.8,1.1-2.8,1.6-3.6L72,25.5l1.2,0.4l-0.7-1.6c0,0,0.9,0.1,1.6,1c0.4-0.4,1.3-0.7,2.1-0.1c0.6,0,0.9,0.1,1.2,0.2
	c0.6,0.4,0.5,1,0.5,1.2c-0.3-0.3-1.3-0.9-2.2-0.1l1.8,0.6l-2.3,0.2v2.4l-2.8,2.5v0.9l1.9-1.7v0.9l-3.3,3v0.9l4.2-3.8l0,0l1.1-0.9
	l0,0c0.6-0.5,0.9-0.8,1.3-1c0.4-0.3,0.5,0,0.6,0.5c0.1,0.4,0.6,0.8,1.6-0.1c2.9-2.7,6-4.1,9.3-5.7c-1.8,1.2-5,3-6.1,4.2
	c-0.5,0.6,0,1.9,0.8,1.3c1.4-0.9,3.2-1.1,4.2-1c0.4,0,0.9-0.3,1.2-0.7c0.3-0.3,0.3-0.7-0.3-0.7c3-0.9,3.8-1.2,6.3-1.4
	c0.7,0,1.1-0.4,1.2-1c0.1-0.5-0.1-0.7-0.8-0.7c-0.7-0.1-2,0.1-3.3,0.3c2.9-1.2,6.4-1.9,9.2-2.7c0.9-0.3,1-0.5,1-1
	c0.1-0.6-0.3-0.6-1.3-0.6c-2,0.1-5,0.3-9.6,1.6c4.3-2.2,6.8-3.2,10.7-4.2c1.1-0.3,1.2-0.6,1.3-1.1c0.2-0.6-0.3-0.6-0.7-0.6
	c-0.6,0-1.9,0-4.6,0.8c2.6-1.1,5.5-2.5,7.5-3.1c0.4-0.2,0.7-0.4,0.7-0.9c0-0.4-0.1-0.4-0.5-0.4c-0.9,0-2.3,0.3-4,0.8
	c3.5-1.5,4.6-2,7-2.4c0.8-0.2,0.9-0.4,1-0.9C109.7,10.3,109.3,10.3,108.8,10.3 M73.7,22.3c0-0.3-0.2-0.5-0.4-0.6
	c0.5-1.3,1-2.2,2-3.6C74.4,19.9,74,21.5,73.7,22.3 M70.5,21.2c0.7-7.5,4.1-13,6.4-15.6C73.6,10.6,71.7,17.5,70.5,21.2 M83,23.4
	c4.4-4.2,10.4-8.6,18-10.4C94.6,15.2,85.8,21.2,83,23.4"/>
<polygon class="st0" points="118.4,17.4 115.8,10.2 117.4,10.2 119.4,15.8 121.4,10.2 122.5,10.2 119.9,17.4 "/>
<g>
	<path class="st0" d="M124.8,13.5h0.3c0.6,0,1-0.1,1.3-0.4c0.2-0.3,0.4-0.6,0.4-0.9s-0.1-0.5-0.3-0.7s-0.6-0.3-1.2-0.3h-0.5V13.5z
		 M123.4,17.4v-7.1h2.7c0.5,0,1,0.1,1.2,0.2c0.3,0.1,0.5,0.3,0.7,0.6s0.2,0.6,0.2,0.9c0,0.4-0.1,0.8-0.4,1.2c-0.2,0.4-0.6,0.7-1,0.9
		l2.3,3.3h-1.8l-1.8-2.9h-0.8v2.9C124.7,17.4,123.4,17.4,123.4,17.4z"/>
</g>
<rect x="130.2" y="10.2" class="st0" width="1.5" height="7.1"/>
<g>
	<path class="st0" d="M132.3,18.6v-1.1c0.4,0.2,0.8,0.2,1.2,0.2c0.2,0,0.3,0,0.5-0.1c0.1-0.1,0.2-0.2,0.3-0.3
		c0.1-0.1,0.1-0.4,0.1-0.9v-6.3h1.5v6.1c0,0.7-0.1,1.2-0.2,1.5c-0.2,0.3-0.4,0.6-0.7,0.7c-0.3,0.2-0.8,0.3-1.3,0.3
		C133.1,18.8,132.7,18.8,132.3,18.6"/>
</g>
<polygon class="st0" points="137.6,17.4 137.6,10.2 142.2,10.2 142.2,11.2 139.1,11.2 139.1,13.2 141.7,13.2 141.7,14.2 139.1,14.2 
	139.1,16.4 142.4,16.4 142.4,17.4 "/>
<g>
	<path class="st0" d="M116.5,23.3h1.5v4.4c0,0.8,0.1,1.3,0.4,1.6c0.3,0.3,0.6,0.4,1,0.4s0.8-0.1,1-0.4c0.2-0.3,0.4-0.7,0.4-1.5v-4.5
		h1.3v4.4c0,0.8-0.1,1.4-0.3,1.8c-0.2,0.4-0.5,0.6-0.9,0.8s-0.9,0.3-1.5,0.3s-1.1-0.1-1.5-0.3s-0.8-0.5-1-0.9s-0.4-1-0.4-1.8V23.3z"
		/>
</g>
<polygon class="st0" points="123.9,30.4 123.9,23.3 125.2,23.3 128.5,28.2 128.5,23.3 129.7,23.3 129.7,30.4 128.4,30.4 125.1,25.6 
	125.1,30.4 "/>
<rect x="131.6" y="23.3" class="st0" width="1.5" height="7.1"/>
<polygon class="st0" points="136.7,30.4 134.1,23.3 135.7,23.3 137.7,28.8 139.7,23.3 140.8,23.3 138.2,30.4 "/>
<polygon class="st0" points="141.6,30.4 141.6,23.3 146.1,23.3 146.1,24.3 143.1,24.3 143.1,26.3 145.6,26.3 145.6,27.2 143.1,27.2 
	143.1,29.4 146.4,29.4 146.4,30.4 "/>
<g>
	<path class="st0" d="M149,26.5h0.3c0.6,0,1-0.1,1.3-0.4c0.2-0.3,0.4-0.6,0.4-0.9s-0.1-0.5-0.3-0.7s-0.6-0.3-1.2-0.3H149V26.5z
		 M147.6,30.4v-7.1h2.7c0.5,0,1,0.1,1.2,0.2c0.3,0.1,0.5,0.3,0.7,0.6s0.2,0.6,0.2,0.9c0,0.4-0.1,0.8-0.4,1.2c-0.2,0.4-0.6,0.7-1,0.8
		l2.3,3.3h-1.8l-1.8-2.9h-0.8v2.9L147.6,30.4L147.6,30.4z"/>
	<path class="st0" d="M153.8,30.4v-1.2c0.6,0.2,1,0.4,1.3,0.4s0.5,0.1,0.8,0.1c0.4,0,0.7-0.1,0.9-0.3s0.3-0.4,0.3-0.7
		c0-0.2-0.1-0.4-0.2-0.5c-0.1-0.2-0.4-0.4-0.8-0.6l-0.5-0.3c-0.7-0.4-1.2-0.7-1.4-1.1c-0.2-0.3-0.4-0.7-0.4-1.1c0-0.5,0.2-1,0.6-1.4
		c0.4-0.4,1-0.6,1.8-0.6c0.6,0,1.2,0.1,1.9,0.2v1.1c-0.7-0.3-1.3-0.4-1.8-0.4c-0.4,0-0.6,0.1-0.8,0.2c-0.2,0.2-0.3,0.3-0.3,0.6
		c0,0.2,0.1,0.3,0.2,0.5c0.1,0.1,0.4,0.3,0.8,0.6l0.5,0.3c0.8,0.4,1.3,0.8,1.5,1.1s0.3,0.7,0.3,1.1c0,0.6-0.2,1.1-0.7,1.5
		c-0.4,0.4-1.2,0.6-2.1,0.6C155.3,30.6,154.6,30.5,153.8,30.4"/>
</g>
<rect x="159.9" y="23.3" class="st0" width="1.5" height="7.1"/>
<polygon class="st0" points="164.5,30.4 164.5,24.3 161.9,24.3 161.9,23.3 168.5,23.3 168.5,24.3 165.9,24.3 165.9,30.4 "/>
<polygon class="st0" points="169.1,30.4 169.1,23.3 173.6,23.3 173.6,24.3 170.5,24.3 170.5,26.3 173.1,26.3 173.1,27.2 170.5,27.2 
	170.5,29.4 173.9,29.4 173.9,30.4 "/>
<rect x="175.1" y="23.3" class="st0" width="1.5" height="7.1"/>
<path class="st0" d="M118,40.6h2.2l-1.1-2.8L118,40.6z M115.8,43.5l2.8-7.1h1.5l2.8,7.1h-1.5l-0.7-1.9h-3l-0.7,1.9H115.8z"/>
<polygon class="st0" points="123.8,43.5 123.8,36.3 125.7,36.3 127.5,41.4 129.2,36.3 131,36.3 131,43.5 129.6,43.5 129.6,38.1 
	127.8,43 126.6,43 124.9,38 124.9,43.5 "/>
<g>
	<path class="st0" d="M132.4,43.4v-1.2c0.6,0.2,1,0.4,1.2,0.4c0.3,0,0.5,0.1,0.8,0.1c0.4,0,0.7-0.1,0.9-0.3s0.3-0.4,0.3-0.7
		c0-0.2-0.1-0.4-0.2-0.5c-0.1-0.2-0.4-0.4-0.8-0.6l-0.5-0.3c-0.7-0.4-1.2-0.7-1.4-1.1c-0.2-0.3-0.4-0.7-0.4-1.1c0-0.5,0.2-1,0.6-1.4
		c0.4-0.4,1-0.6,1.8-0.6c0.6,0,1.2,0.1,1.9,0.2v1.1c-0.7-0.3-1.3-0.4-1.8-0.4c-0.4,0-0.6,0.1-0.8,0.2c-0.2,0.2-0.3,0.3-0.3,0.6
		c0,0.2,0.1,0.3,0.2,0.5c0.1,0.1,0.4,0.3,0.8,0.6l0.5,0.3c0.8,0.4,1.3,0.8,1.5,1.2c0.2,0.3,0.3,0.7,0.3,1.1c0,0.6-0.2,1.1-0.7,1.5
		c-0.4,0.4-1.2,0.6-2.1,0.6C133.9,43.6,133.2,43.6,132.4,43.4"/>
</g>
<polygon class="st0" points="139.7,43.5 139.7,37.3 137.2,37.3 137.2,36.3 143.8,36.3 143.8,37.3 141.2,37.3 141.2,43.5 "/>
<polygon class="st0" points="144.4,43.5 144.4,36.3 148.9,36.3 148.9,37.3 145.9,37.3 145.9,39.3 148.4,39.3 148.4,40.3 145.9,40.3 
	145.9,42.5 149.2,42.5 149.2,43.5 "/>
<g>
	<path class="st0" d="M151.7,39.6h0.3c0.6,0,1-0.1,1.3-0.4c0.2-0.3,0.3-0.6,0.3-0.9c0-0.3-0.1-0.5-0.3-0.7s-0.6-0.3-1.2-0.3h-0.5
		L151.7,39.6L151.7,39.6z M150.3,43.5v-7.1h2.7c0.5,0,1,0.1,1.3,0.2c0.3,0.1,0.5,0.3,0.7,0.6s0.3,0.6,0.3,0.9c0,0.4-0.1,0.8-0.4,1.2
		c-0.2,0.4-0.6,0.7-1,0.9l2.3,3.3h-1.8l-1.8-2.9h-0.8v2.9C151.8,43.5,150.3,43.5,150.3,43.5z"/>
	<path class="st0" d="M158.4,42.5h1.1c0.6,0,1-0.1,1.3-0.3s0.5-0.5,0.7-0.9s0.3-0.9,0.3-1.4s-0.1-1-0.3-1.3
		c-0.2-0.4-0.4-0.7-0.7-0.9s-0.8-0.3-1.6-0.3h-0.9L158.4,42.5L158.4,42.5z M156.9,43.5v-7.1h3.1c0.8,0,1.5,0.1,1.9,0.4
		c0.5,0.3,0.8,0.7,1.1,1.2s0.4,1.1,0.4,1.9c0,0.7-0.1,1.3-0.4,1.9c-0.3,0.6-0.6,1-1.1,1.3s-1.2,0.5-2,0.5h-3V43.5z"/>
</g>
<path class="st0" d="M165.7,40.6h2.2l-1.1-2.8L165.7,40.6z M163.5,43.5l2.8-7.1h1.5l2.8,7.1h-1.5l-0.7-1.9h-3l-0.7,1.9H163.5z"/>
<polygon class="st0" points="171.3,43.5 171.3,36.3 173.3,36.3 175,41.4 176.8,36.3 178.5,36.3 178.5,43.5 177.1,43.5 177.1,38.1 
	175.4,43 174.2,43 172.5,38 172.5,43.5 "/>
</svg>
